<svg xmlns="http://www.w3.org/2000/svg" width="24" height="24" viewBox="0 0 24 24" fill="none">
  <g clip-path="url(#clip0_415_1156)">
    <path d="M21.9999 2.66667H1.99992C1.82311 2.66667 1.65354 2.73691 1.52851 2.86193C1.40349 2.98696 1.33325 3.15653 1.33325 3.33334V4.44667C1.33338 4.60413 1.36466 4.76001 1.4253 4.90532C1.48594 5.05063 1.57474 5.1825 1.68659 5.29334L9.33325 13.0533V19.8533L10.6666 20.36V12.6667C10.6671 12.5789 10.6503 12.492 10.6171 12.4107C10.5839 12.3295 10.535 12.2556 10.4733 12.1933L2.66659 4.39334V4.00001H21.3333V4.40667L13.5533 12.1933C13.4866 12.2534 13.4328 12.3262 13.395 12.4076C13.3572 12.4889 13.3362 12.577 13.3333 12.6667V21.4733L14.6666 22V13L22.3133 5.33334C22.4269 5.21969 22.5167 5.08448 22.5774 4.93566C22.638 4.78683 22.6684 4.62738 22.6666 4.46667V3.33334C22.6666 3.15653 22.5963 2.98696 22.4713 2.86193C22.3463 2.73691 22.1767 2.66667 21.9999 2.66667Z" fill="black"/>
  </g>
  <defs>
    <clipPath id="clip0_415_1156">
      <rect width="24" height="24" fill="white"/>
    </clipPath>
  </defs>
</svg>