<svg xmlns="http://www.w3.org/2000/svg" width="32" height="32" viewBox="0 0 32 32" fill="none">
  <path d="M4.87501 9.12501L7.07188 9.12501C7.22188 9.12501 7.36251 9.05939 7.45626 8.94376C7.67501 8.67814 7.90938 8.42189 8.15626 8.17814C9.16597 7.16742 10.362 6.36194 11.6781 5.80626C13.0417 5.23033 14.5073 4.93487 15.9875 4.93751C17.4844 4.93751 18.9344 5.23126 20.2969 5.80626C21.613 6.36195 22.8091 7.16742 23.8188 8.17814C24.8303 9.18544 25.6368 10.3794 26.1938 11.6938C26.7719 13.0563 27.0625 14.5031 27.0625 16C27.0625 17.4969 26.7688 18.9438 26.1938 20.3063C25.6375 21.6219 24.8375 22.8063 23.8188 23.8219C22.8 24.8375 21.6156 25.6375 20.2969 26.1938C18.9344 26.7688 17.4844 27.0625 15.9875 27.0625C14.4906 27.0625 13.0406 26.7719 11.6781 26.1938C10.3594 25.6375 9.17501 24.8375 8.15626 23.8219C7.90938 23.575 7.67813 23.3188 7.45626 23.0563C7.36251 22.9406 7.21876 22.875 7.07188 22.875L4.87501 22.875C4.67813 22.875 4.55626 23.0938 4.66563 23.2594C7.06251 26.9844 11.2563 29.45 16.0219 29.4375C23.5094 29.4188 29.5125 23.3406 29.4375 15.8625C29.3625 8.50314 23.3688 2.56251 15.9875 2.56251C11.2344 2.56251 7.05938 5.02501 4.66563 8.74064C4.55938 8.90626 4.67813 9.12501 4.87501 9.12501ZM2.09688 16.1969L6.53126 19.6969C6.69688 19.8281 6.93751 19.7094 6.93751 19.5L6.93751 17.125L16.75 17.125C16.8875 17.125 17 17.0125 17 16.875L17 15.125C17 14.9875 16.8875 14.875 16.75 14.875L6.93751 14.875L6.93751 12.5C6.93751 12.2906 6.69376 12.1719 6.53126 12.3031L2.09688 15.8031C2.067 15.8265 2.04284 15.8564 2.02622 15.8905C2.0096 15.9246 2.00096 15.9621 2.00096 16C2.00096 16.038 2.0096 16.0754 2.02622 16.1095C2.04284 16.1436 2.067 16.1735 2.09688 16.1969Z" fill="#FF2525"/>
</svg>