<svg xmlns="http://www.w3.org/2000/svg" width="24" height="24" viewBox="0 0 24 24" fill="none">
  <path d="M1 4.9C1 4.39609 1.20018 3.91282 1.5565 3.5565C1.91282 3.20018 2.39609 3 2.9 3H21.9C22.4039 3 22.8872 3.20018 23.2435 3.5565C23.5998 3.91282 23.8 4.39609 23.8 4.9C23.8 5.40391 23.5998 5.88718 23.2435 6.2435C22.8872 6.59982 22.4039 6.8 21.9 6.8H2.9C2.39609 6.8 1.91282 6.59982 1.5565 6.2435C1.20018 5.88718 1 5.40391 1 4.9ZM4.8 12.5C4.8 11.9961 5.00018 11.5128 5.3565 11.1565C5.71282 10.8002 6.19609 10.6 6.7 10.6H18.1C18.6039 10.6 19.0872 10.8002 19.4435 11.1565C19.7998 11.5128 20 11.9961 20 12.5C20 13.0039 19.7998 13.4872 19.4435 13.8435C19.0872 14.1998 18.6039 14.4 18.1 14.4H6.7C6.19609 14.4 5.71282 14.1998 5.3565 13.8435C5.00018 13.4872 4.8 13.0039 4.8 12.5ZM10.5 18.2C9.99609 18.2 9.51282 18.4002 9.1565 18.7565C8.80018 19.1128 8.6 19.5961 8.6 20.1C8.6 20.6039 8.80018 21.0872 9.1565 21.4435C9.51282 21.7998 9.99609 22 10.5 22H14.3C14.8039 22 15.2872 21.7998 15.6435 21.4435C15.9998 21.0872 16.2 20.6039 16.2 20.1C16.2 19.5961 15.9998 19.1128 15.6435 18.7565C15.2872 18.4002 14.8039 18.2 14.3 18.2H10.5Z" fill="black"/>
</svg>